<svg style="display: none;" xmlns="http://www.w3.org/2000/svg">
  <symbol id="logo" viewBox="0 0 241 78">
    <path d="M40.4571 37.264C40.4571 38.416 40.3851 39.616 40.2411 40.864H12.3771C12.5691 43.36 13.3611 45.28 14.7531 46.624C16.1931 47.92 17.9451 48.568 20.0091 48.568C23.0811 48.568 25.2171 47.272 26.4171 44.68H39.5211C38.8491 47.32 37.6251 49.696 35.8491 51.808C34.1211 53.92 31.9371 55.576 29.2971 56.776C26.6571 57.976 23.7051 58.576 20.4411 58.576C16.5051 58.576 13.0011 57.736 9.92909 56.056C6.85709 54.376 4.45709 51.976 2.72909 48.856C1.00109 45.736 0.137094 42.088 0.137094 37.912C0.137094 33.736 0.977094 30.088 2.65709 26.968C4.38509 23.848 6.78509 21.448 9.85709 19.768C12.9291 18.088 16.4571 17.248 20.4411 17.248C24.3291 17.248 27.7851 18.064 30.8091 19.696C33.8331 21.328 36.1851 23.656 37.8651 26.68C39.5931 29.704 40.4571 33.232 40.4571 37.264ZM27.8571 34.024C27.8571 31.912 27.1371 30.232 25.6971 28.984C24.2571 27.736 22.4571 27.112 20.2971 27.112C18.2331 27.112 16.4811 27.712 15.0411 28.912C13.6491 30.112 12.7851 31.816 12.4491 34.024H27.8571ZM70.7123 58L63.0083 46.84L56.5283 58H43.2083L56.4563 37.48L42.8483 17.824H56.6723L64.3763 28.912L70.8563 17.824H84.1763L70.7123 38.056L84.5363 58H70.7123ZM101.592 23.512C102.792 21.64 104.448 20.128 106.56 18.976C108.672 17.824 111.144 17.248 113.976 17.248C117.288 17.248 120.288 18.088 122.976 19.768C125.664 21.448 127.776 23.848 129.312 26.968C130.896 30.088 131.688 33.712 131.688 37.84C131.688 41.968 130.896 45.616 129.312 48.784C127.776 51.904 125.664 54.328 122.976 56.056C120.288 57.736 117.288 58.576 113.976 58.576C111.192 58.576 108.72 58 106.56 56.848C104.448 55.696 102.792 54.208 101.592 52.384V77.152H89.2804V17.824H101.592V23.512ZM119.16 37.84C119.16 34.768 118.296 32.368 116.568 30.64C114.888 28.864 112.8 27.976 110.304 27.976C107.856 27.976 105.768 28.864 104.04 30.64C102.36 32.416 101.52 34.84 101.52 37.912C101.52 40.984 102.36 43.408 104.04 45.184C105.768 46.96 107.856 47.848 110.304 47.848C112.752 47.848 114.84 46.96 116.568 45.184C118.296 43.36 119.16 40.912 119.16 37.84ZM144.34 13.648C142.18 13.648 140.404 13.024 139.012 11.776C137.668 10.48 136.996 8.896 136.996 7.024C136.996 5.104 137.668 3.52 139.012 2.272C140.404 0.975996 142.18 0.327996 144.34 0.327996C146.452 0.327996 148.18 0.975996 149.524 2.272C150.916 3.52 151.612 5.104 151.612 7.024C151.612 8.896 150.916 10.48 149.524 11.776C148.18 13.024 146.452 13.648 144.34 13.648ZM150.46 17.824V58H138.148V17.824H150.46ZM156.934 37.912C156.934 33.736 157.774 30.088 159.454 26.968C161.182 23.848 163.558 21.448 166.582 19.768C169.654 18.088 173.158 17.248 177.094 17.248C182.134 17.248 186.334 18.568 189.694 21.208C193.102 23.848 195.334 27.568 196.39 32.368H183.286C182.182 29.296 180.046 27.76 176.878 27.76C174.622 27.76 172.822 28.648 171.478 30.424C170.134 32.152 169.462 34.648 169.462 37.912C169.462 41.176 170.134 43.696 171.478 45.472C172.822 47.2 174.622 48.064 176.878 48.064C180.046 48.064 182.182 46.528 183.286 43.456H196.39C195.334 48.16 193.102 51.856 189.694 54.544C186.286 57.232 182.086 58.576 177.094 58.576C173.158 58.576 169.654 57.736 166.582 56.056C163.558 54.376 161.182 51.976 159.454 48.856C157.774 45.736 156.934 42.088 156.934 37.912ZM240.848 37.264C240.848 38.416 240.776 39.616 240.632 40.864H212.768C212.96 43.36 213.752 45.28 215.144 46.624C216.584 47.92 218.336 48.568 220.4 48.568C223.472 48.568 225.608 47.272 226.808 44.68H239.912C239.24 47.32 238.016 49.696 236.24 51.808C234.512 53.92 232.328 55.576 229.688 56.776C227.048 57.976 224.096 58.576 220.832 58.576C216.896 58.576 213.392 57.736 210.32 56.056C207.248 54.376 204.848 51.976 203.12 48.856C201.392 45.736 200.528 42.088 200.528 37.912C200.528 33.736 201.368 30.088 203.048 26.968C204.776 23.848 207.176 21.448 210.248 19.768C213.32 18.088 216.848 17.248 220.832 17.248C224.72 17.248 228.176 18.064 231.2 19.696C234.224 21.328 236.576 23.656 238.256 26.68C239.984 29.704 240.848 33.232 240.848 37.264ZM228.248 34.024C228.248 31.912 227.528 30.232 226.088 28.984C224.648 27.736 222.848 27.112 220.688 27.112C218.624 27.112 216.872 27.712 215.432 28.912C214.04 30.112 213.176 31.816 212.84 34.024H228.248Z"/>
  </symbol>
  <symbol id="facebook" viewBox="0 0 11 20">
    <path d="M10.0055 0.00400128L7.51173 0C4.71006 0 2.8995 1.8576 2.8995 4.73272V6.91482H0.392122C0.175455 6.91482 0 7.09047 0 7.30714V10.4688C0 10.6854 0.175655 10.8609 0.392122 10.8609H2.8995V18.8386C2.8995 19.0553 3.07495 19.2308 3.29162 19.2308H6.56304C6.77971 19.2308 6.95516 19.0551 6.95516 18.8386V10.8609H9.88687C10.1035 10.8609 10.279 10.6854 10.279 10.4688L10.2802 7.30714C10.2802 7.20311 10.2388 7.10348 10.1654 7.02986C10.0919 6.95623 9.9919 6.91482 9.88787 6.91482H6.95516V5.06502C6.95516 4.17594 7.16703 3.7246 8.32519 3.7246L10.0051 3.72399C10.2216 3.72399 10.397 3.54834 10.397 3.33187V0.396127C10.397 0.179858 10.2218 0.00440141 10.0055 0.00400128Z" />
  </symbol>
  <symbol id="twitter"  viewBox="0 0 25 20">
    <path d="M9.75911 19.9998C8.74303 19.9998 7.69719 19.9175 6.64507 19.7526C4.792 19.4618 2.91615 18.4925 2.38535 18.2023L0.993164 17.4411L2.50044 16.9455C4.14807 16.4037 5.15035 16.0676 6.39105 15.5413C5.14874 14.9397 4.19128 13.8574 3.73038 12.4584L3.37974 11.394L3.66728 11.4379C3.39462 11.1631 3.17932 10.8841 3.01242 10.6305C2.41887 9.72893 2.10462 8.62734 2.17148 7.68332L2.23745 6.75418L2.79372 6.96966C2.55906 6.52651 2.38947 6.05325 2.2898 5.55722C2.04689 4.34753 2.25018 3.06237 2.86237 1.93855L3.34693 1.04903L3.99498 1.8274C6.04453 4.28945 8.64049 5.74993 11.7215 6.17748C11.5957 5.31001 11.69 4.47284 12.0021 3.72243C12.3655 2.84869 13.0119 2.10778 13.8709 1.57966C14.825 0.993279 15.982 0.709141 17.1287 0.779593C18.3454 0.854347 19.4501 1.31022 20.3274 2.09881C20.7558 1.98749 21.0715 1.86864 21.4982 1.70801C21.7549 1.61139 22.046 1.50168 22.4103 1.37619L23.7526 0.913684L22.8773 3.41373C22.935 3.40889 22.9945 3.40477 23.0567 3.40208L24.4901 3.33719L23.6429 4.49507C23.5943 4.5614 23.582 4.58022 23.5648 4.60621C23.4965 4.70911 23.4115 4.83711 22.2486 6.38991C21.9575 6.77874 21.8121 7.28517 21.8391 7.81616C21.9422 9.83398 21.6947 11.6596 21.1029 13.2422C20.5432 14.7394 19.6759 16.024 18.5254 17.0604C17.1017 18.3425 15.2862 19.2204 13.1293 19.6692C12.0713 19.8894 10.9351 19.9998 9.75911 19.9998Z"/>
  </symbol>
  <symbol id="linkedin" viewBox="0 0 21 20">
    <path d="M5.40251 6.94824H1.53339C1.36167 6.94824 1.22253 7.08744 1.22253 7.2591V19.6889C1.22253 19.8606 1.36167 19.9998 1.53339 19.9998H5.40251C5.57423 19.9998 5.71337 19.8606 5.71337 19.6889V7.2591C5.71337 7.08744 5.57423 6.94824 5.40251 6.94824Z" />
    <path d="M3.4694 0.769043C2.06158 0.769043 0.91626 1.91312 0.91626 3.31938C0.91626 4.72626 2.06158 5.87078 3.4694 5.87078C4.87609 5.87078 6.02048 4.7262 6.02048 3.31938C6.02054 1.91312 4.87609 0.769043 3.4694 0.769043Z" />
    <path d="M15.244 6.63965C13.69 6.63965 12.5413 7.30768 11.8445 8.06673V7.25944C11.8445 7.08778 11.7054 6.94858 11.5337 6.94858H7.82831C7.6566 6.94858 7.51746 7.08778 7.51746 7.25944V19.6893C7.51746 19.861 7.6566 20.0001 7.82831 20.0001H11.689C11.8607 20.0001 11.9998 19.861 11.9998 19.6893V13.5394C11.9998 11.467 12.5627 10.6597 14.0074 10.6597C15.5807 10.6597 15.7057 11.9539 15.7057 13.646V19.6893C15.7057 19.861 15.8448 20.0002 16.0166 20.0002H19.8786C20.0504 20.0002 20.1895 19.861 20.1895 19.6893V12.8713C20.1895 9.78982 19.6019 6.63965 15.244 6.63965Z"/>
  </symbol>
  <symbol id="behance" viewBox="0 0 26 17">
    <path d="M22.7709 3.05235H16.4893V1.49158H22.7709V3.05235ZM13.1693 9.44927C13.5739 10.0777 13.777 10.8416 13.777 11.7347C13.777 12.6616 13.5485 13.4908 13.0839 14.2239C12.7885 14.7093 12.4209 15.1193 11.9801 15.4485C11.4832 15.83 10.8955 16.0931 10.2201 16.2339C9.54163 16.3747 8.80855 16.4431 8.01855 16.4431H0.993164V0.846191H8.52547C10.4239 0.876191 11.7701 1.42619 12.5647 2.50773C13.0416 3.17004 13.2778 3.96465 13.2778 4.8885C13.2778 5.84311 13.0378 6.60542 12.557 7.18465C12.2893 7.51004 11.8939 7.80619 11.3693 8.07234C12.1639 8.36388 12.7662 8.82004 13.1693 9.44927ZM4.59009 6.99542H7.89086C8.56932 6.99542 9.11778 6.86542 9.53932 6.6085C9.96163 6.35081 10.1724 5.89311 10.1724 5.23619C10.1724 4.51158 9.89393 4.03004 9.3347 3.7985C8.85393 3.63696 8.23932 3.55388 7.49393 3.55388H4.59009V6.99542ZM10.4901 11.5116C10.4901 10.7016 10.1585 10.1423 9.49778 9.84081C9.12855 9.67081 8.60701 9.58234 7.93855 9.57619H4.59009V13.7323H7.88547C8.56316 13.7323 9.08701 13.6447 9.46547 13.4585C10.1478 13.12 10.4901 12.4731 10.4901 11.5116ZM25.1009 8.97465C25.1778 9.48542 25.2124 10.2254 25.197 11.1931H17.0632C17.1085 12.3162 17.4955 13.1008 18.2316 13.55C18.6739 13.8316 19.2116 13.9693 19.8416 13.9693C20.5055 13.9693 21.0462 13.8016 21.4624 13.457C21.6893 13.2739 21.8893 13.0154 22.0616 12.6908H25.0439C24.9647 13.3531 24.607 14.0247 23.9609 14.71C22.9616 15.7947 21.5601 16.3416 19.7601 16.3416C18.2716 16.3416 16.9616 15.88 15.8239 14.9654C14.6893 14.0485 14.1201 12.557 14.1201 10.4908C14.1201 8.55311 14.6324 7.0685 15.6585 6.03696C16.6878 5.00235 18.0162 4.48773 19.6547 4.48773C20.6255 4.48773 21.5009 4.66081 22.2824 5.00927C23.0609 5.35927 23.7039 5.9085 24.2101 6.66388C24.6678 7.32927 24.9632 8.0985 25.1009 8.97465ZM22.1647 9.26619C22.1116 8.49004 21.8516 7.90234 21.3839 7.50081C20.9201 7.09696 20.3424 6.89542 19.6532 6.89542C18.9009 6.89542 18.3232 7.11081 17.9093 7.53542C17.4947 7.96081 17.237 8.53619 17.1309 9.26619H22.1647Z"/>
  </symbol>
</svg>
